<?xml version="1.0" encoding="UTF-8"?>
<svg id="Layer_2" data-name="Layer 2" xmlns="http://www.w3.org/2000/svg" viewBox="0 0 1457.83 1457.83">
  <defs>
    <style>
      .cls-1 {
        fill: #fff;
      }

      .cls-2 {
        fill: #173660;
      }

      .cls-3 {
        fill: none;
        stroke: #fff;
        stroke-miterlimit: 10;
        stroke-width: 4px;
      }
    </style>
  </defs>
  <g id="Layer_1-2" data-name="Layer 1">
    <circle class="cls-2" cx="728.91" cy="728.91" r="728.91"/>
    <g>
      <path class="cls-1" d="M546.28,948.96l-89.9-128.88c-5.66,.63-11.32,.63-16.97,.63h-99.33v128.25h-81.73V508.87h181.06c115.68,0,187.35,59.1,187.35,156.54,0,66.64-33.95,115.68-93.68,138.94l101.22,144.6h-88.02Zm-110.65-370.93h-95.56v175.4h95.56c71.67,0,108.76-32.69,108.76-88.02s-37.09-87.39-108.76-87.39Z"/>
      <path class="cls-1" d="M1122.16,948.96l-.63-291.71-144.6,241.42h-36.46l-144.6-237.65v287.94h-77.96V508.87h67.27l174.78,291.71,171.63-291.71h67.27l.63,440.08h-77.33Z"/>
    </g>
    <circle class="cls-3" cx="728.41" cy="728.41" r="632.04"/>
  </g>
</svg>