<?xml version="1.0" encoding="UTF-8"?>
<svg id="Layer_2" data-name="Layer 2" xmlns="http://www.w3.org/2000/svg" viewBox="0 0 275.46 52.21">
  <defs>
    <style>
      .cls-1 {
        fill: #173963;
      }
    </style>
  </defs>
  <g id="Layer_1-2" data-name="Layer 1">
    <g>
      <path class="cls-1" d="M24.41,.01c-.07,.23,.07,.42,.14,.61,4.67,13.14,9.35,26.28,14.03,39.41q.2,.57-.39,.58c-2.71,0-5.42-.02-8.12,.02-.5,0-.67-.18-.8-.61-.75-2.46-1.52-4.91-2.27-7.37-.1-.33-.23-.45-.58-.44-4.72,.01-9.43,.01-14.15,0-.34,0-.49,.1-.6,.43-.83,2.53-1.68,5.05-2.52,7.57-.09,.26-.17,.42-.5,.41-2.8-.02-5.59,0-8.39-.01-.07,0-.14-.02-.25-.03,.59-1.65,1.17-3.28,1.75-4.91C5.99,23.85,10.22,12.03,14.45,.22c.02-.07,.04-.14,.06-.2,3.3,0,6.6,0,9.9,0Zm.01,25.21c-1.65-5.35-3.29-10.67-4.96-16.1-.3,.64-5.27,15.65-5.35,16.1h10.31Z"/>
      <path class="cls-1" d="M137.83,.01V14.34c.21-.03,.19-.21,.25-.32,1.02-1.92,2.68-3.05,4.68-3.71,3.14-1.04,6.26-.91,9.25,.53,2.93,1.41,4.48,3.85,4.97,7,.11,.73,.13,1.46,.13,2.19,0,6.66,0,13.31,.01,19.97,0,.49-.12,.62-.61,.61-2.28-.03-4.55-.02-6.83,0-.44,0-.53-.13-.53-.54,0-6.14,0-12.27,0-18.41,0-.92-.1-1.82-.46-2.68-.76-1.84-2.31-2.44-4.14-2.54-3.92-.2-6.66,2.36-6.7,6.37-.06,5.69-.02,11.38-.03,17.07,0,.13-.01,.25,0,.38,.03,.25-.06,.34-.33,.34-2.4,0-4.81,0-7.21,0-.27,0-.35-.1-.32-.35,0-.05,0-.11,0-.16,0-13.31,0-26.62,0-39.94,0-.05,0-.11,0-.16,2.62,0,5.24,0,7.86,0Z"/>
      <path class="cls-1" d="M275.45,40.6c-2.45,0-4.91,0-7.36,.02-.3,0-.44-.07-.39-.38,0-.05,0-.11,0-.16,0-13.26,0-26.53,0-39.79,0-.09,0-.18,0-.27,2.44,0,4.88,.01,7.32-.01,.37,0,.44,.07,.44,.44-.01,13.39-.01,26.77-.01,40.16Z"/>
      <path class="cls-1" d="M51.3,14.8c1.91-3.28,4.68-5.03,8.5-5.14,3.84-.11,6.74,1.37,8.62,4.86,.19-.24,.32-.4,.43-.56,2.95-4.13,6.88-5.17,11.82-3.67,4.01,1.22,6.51,4.51,6.56,8.67,.07,7.09,.03,14.17,.04,21.26,0,.3-.07,.4-.39,.4-2.42-.01-4.84-.02-7.26,0-.48,0-.4-.27-.4-.55,0-5.78,0-11.56,0-17.34,0-1.06-.03-2.11-.34-3.13-.69-2.34-2.45-3.42-4.86-3.13-3.27,.4-4.28,2.66-4.52,4.94-.07,.66-.08,1.32-.08,1.98,0,5.55-.01,11.09,0,16.64,0,.48-.13,.59-.59,.58-2.3-.03-4.59-.03-6.89,0-.5,0-.58-.15-.57-.6,.01-5.76,.01-11.52,0-17.29,0-.93,0-1.86-.16-2.78-.36-2.16-1.5-3.25-3.69-3.55-.81-.11-1.61-.1-2.41,.08-1.87,.41-3.03,1.74-3.39,3.84-.13,.78-.15,1.57-.15,2.35,0,5.78,0,11.56,.01,17.34,0,.51-.15,.61-.63,.61-2.28-.02-4.55-.02-6.83,0-.39,0-.52-.08-.52-.49,.01-9.73,.01-19.47,0-29.2,0-.41,.12-.5,.51-.5,2.22,.02,4.45,.02,6.67,0,.42,0,.5,.13,.49,.52-.02,1.29,0,2.58,0,3.86Z"/>
      <path class="cls-1" d="M102.89,36.67c0,.28,0,.47,0,.66,0,4.78,0,9.55,0,14.33,0,.4-.08,.55-.52,.54-2.28-.02-4.55-.02-6.83,0-.38,0-.52-.06-.52-.49,.01-13.6,.01-27.2,0-40.8,0-.35,.06-.5,.46-.5,2.22,.02,4.45,.02,6.67,0,.39,0,.47,.13,.47,.49-.02,1.25,0,2.5,0,3.79,.27-.07,.32-.3,.42-.46,1.42-2.25,3.37-3.78,6.01-4.33,5.51-1.14,10.67,1.4,13.16,6.48,1.59,3.25,1.98,6.73,1.78,10.29-.15,2.64-.66,5.21-1.79,7.62-1.69,3.6-4.36,6.06-8.38,6.76-2.84,.49-5.62,.32-8.12-1.35-.99-.66-1.74-1.53-2.38-2.52-.1-.16-.16-.36-.44-.53Zm-.27-10.57c-.02,.66,0,1.46,.15,2.26,.1,.58,.24,1.16,.41,1.72,.99,3.2,3.47,4.95,6.81,4.71,2.52-.18,4.08-1.71,4.98-3.93,1.36-3.33,1.35-6.74,.21-10.12-.57-1.71-1.65-3.05-3.38-3.75-3.56-1.44-7.17,.19-8.43,3.79-.59,1.67-.76,3.41-.76,5.32Z"/>
      <path class="cls-1" d="M180.53,27.18c-3.3,0-6.6,0-9.9,0-.46,0-.64,.04-.56,.59,.14,.92,.28,1.84,.62,2.71,.93,2.37,2.77,3.5,5.22,3.79,1.41,.17,2.79,.08,4.1-.53,1.03-.48,1.82-1.2,2.22-2.29,.09-.23,.19-.3,.42-.3,2.56,0,5.13,0,7.69,0,.43,0,.29,.21,.22,.43-1.21,3.67-3.52,6.4-7.14,7.82-4.88,1.91-9.76,1.69-14.5-.52-2.76-1.28-4.62-3.5-5.63-6.34-1.73-4.84-1.93-9.73-.07-14.58,1.8-4.7,5.36-7.28,10.28-8.05,2.71-.42,5.4-.34,8.04,.46,4.57,1.38,7.38,4.48,8.69,8.99,.71,2.45,.85,4.96,.85,7.49,0,.37-.2,.34-.44,.34-2.21,0-4.41,0-6.62,0-1.17,0-2.33,0-3.5,0Zm-4.06-4.94c1.93,0,3.87,0,5.8,0,.27,0,.48,.02,.43-.38-.51-3.61-2.69-5.64-5.83-5.79-2.2-.1-4.11,.53-5.39,2.45-.63,.94-.97,1.98-1.15,3.08-.11,.63-.1,.63,.56,.63,1.86,0,3.72,0,5.59,0Z"/>
      <path class="cls-1" d="M230.83,25.26c.03-2.53,.37-4.87,1.32-7.1,1.48-3.42,3.96-5.86,7.42-7.21,4.8-1.86,9.62-1.82,14.31,.34,4.41,2.02,6.83,5.62,7.68,10.32,.55,3.04,.44,6.06-.47,9.02-1.37,4.44-4.3,7.46-8.69,8.97-4.17,1.44-8.4,1.42-12.53-.16-4.76-1.81-7.58-5.34-8.65-10.28-.29-1.33-.38-2.69-.41-3.91Zm22.79-.26c.03-.8-.06-1.75-.23-2.68-.53-2.92-2.01-5.86-6.4-6.15-3.36-.21-6.14,1.1-7.3,4.74-.68,2.14-.74,4.32-.45,6.52,.12,.94,.36,1.86,.74,2.73,1.2,2.76,3.58,4.13,6.84,3.96,3.25-.17,5.33-1.8,6.27-4.91,.4-1.33,.54-2.69,.53-4.22Z"/>
      <path class="cls-1" d="M205.52,14.82c.38-.54,.73-1.09,1.13-1.61,1.76-2.23,4.12-3.33,6.92-3.51,2.85-.18,5.55,.31,7.88,2.08,2.34,1.78,3.43,4.25,3.52,7.11,.1,3.31,.04,6.62,.04,9.93,0,3.74-.01,7.48,.01,11.22,0,.49-.14,.58-.6,.58-2.24-.02-4.48-.02-6.72,0-.45,0-.56-.12-.56-.56,.01-6.12,0-12.24,0-18.36,0-.96-.11-1.9-.49-2.78-.77-1.78-2.3-2.37-4.08-2.46-3.92-.22-6.69,2.36-6.73,6.34-.05,5.64-.02,11.27-.03,16.91q0,.9-.89,.9c-2.19,0-4.38,0-6.56,0-.39,0-.51-.08-.51-.5,.01-9.73,.01-19.47,0-29.2,0-.41,.11-.5,.51-.5,2.19,.02,4.38,.02,6.56,0,.41,0,.51,.11,.5,.51-.03,1.28,0,2.57,0,3.85,.03,.01,.07,.02,.1,.04Z"/>
    </g>
  </g>
</svg>