<?xml version="1.0" encoding="UTF-8"?>
<svg id="Layer_2" data-name="Layer 2" xmlns="http://www.w3.org/2000/svg" viewBox="0 0 200.59 77.31">
  <defs>
    <style>
      .cls-1 {
        fill: #173963;
      }
    </style>
  </defs>
  <g id="Layer_1-2" data-name="Layer 1">
    <g>
      <path class="cls-1" d="M155,60.86c0,.83-.02,1.46,0,2.09,.02,.67,.05,1.19-.94,1.2-1.03,.01-1.05-.48-1.05-1.24,.03-2.67,0-5.33,.02-8,0-.39-.25-.97,.39-1.08,.49-.08,1.26-.32,1.46,.21,.34,.93,.63,.33,.96,.11,.77-.53,1.64-.64,2.51-.44,1.5,.36,2.49,1.35,2.77,2.85,.34,1.79,.16,3.52-1.52,4.67-1.33,.91-2.72,.87-4.07-.04-.11-.08-.23-.14-.54-.32Zm-.03-3.07c.02,1.4,.9,2.39,2.16,2.42,1.27,.03,2.28-1.1,2.25-2.5-.03-1.37-.95-2.37-2.2-2.38-1.34-.01-2.23,.98-2.21,2.47Z"/>
      <path class="cls-1" d="M150.87,40.34c0,.53,.05,1.07-.01,1.6-.07,.58,.38,1.47-.35,1.67-.7,.19-1.65,.5-2.28-.26-.51-.61-.77,.02-1.09,.15-2.64,1.1-5.13-.29-4.99-2.83,.08-1.49,1.04-2.5,2.72-2.71,.76-.1,1.55,0,2.32,0,.3,0,.71,.39,.88-.07,.16-.44-.1-.86-.51-1.1-.9-.53-1.91-.48-2.82-.15-1.05,.38-1.33-.11-1.61-.96-.34-1.07,.44-1.07,1.06-1.27,1.13-.37,2.31-.37,3.46-.23,1.93,.23,3,1.44,3.18,3.55,.07,.87,.01,1.74,.01,2.62,0,0,.01,0,.02,0Zm-4.63,1.64c1-.11,1.92-.44,1.98-1.54,.06-1.14-1-.8-1.61-.85-.82-.06-1.74,.03-1.8,1.17-.05,.98,.69,1.14,1.43,1.22Z"/>
      <path class="cls-1" d="M80.07,37.12c.15-2.9-.32-5.84,.4-8.7,1.1-4.38,4.6-7.4,9.26-8.09,4.09-.6,8.33,1.45,10.57,5.24,.49,.83,.89,1.02,1.77,.66,1.92-.79,3.87-1.52,5.84-2.19,.81-.27,1.06-.49,.64-1.37-3.76-7.93-12.98-12.47-21.61-10.57-8.87,1.96-15.28,9.72-15.33,18.59-.02,4.12,.02,8.25-.02,12.37-.01,1.66,.22,3.29,.62,4.88,1.97,7.75,8.88,13.59,17,14.38,7.83,.77,15.73-3.64,19.18-10.64,.43-.87,.33-1.22-.6-1.53-1.84-.61-3.65-1.29-5.44-2.01-1.01-.41-1.59-.43-2.28,.71-2.38,3.89-7.08,5.74-11.48,4.74-4.36-.99-7.62-4.56-8.32-9.06-.38-2.46-.06-4.94-.2-7.41Z"/>
      <path class="cls-1" d="M.04,37.19C.04,44.81,.08,52.43,0,60.05c-.01,1.34,.39,1.6,1.61,1.54,2.09-.1,4.18-.09,6.27,0,1.03,.04,1.29-.27,1.28-1.29-.05-7.08-.02-14.17-.02-21.25,0-8.35-.03-16.69,.03-25.04,0-1.19-.35-1.46-1.47-1.42-2.09,.09-4.18,.1-6.27,0C.25,12.53,0,12.93,.01,14.04c.05,7.72,.02,15.43,.02,23.15Z"/>
      <path class="cls-1" d="M185.12,35.31c.08-1.89-1.23-.97-1.95-1.1-.98-.17-.75,.64-.75,1.17-.02,2.42,.06,4.85-.03,7.27-.04,1.17,.6,1.09,1.36,1.06,.7-.02,1.48,.23,1.38-1.02-.11-1.4-.04-2.81-.02-4.21,.01-1.09,.39-1.97,1.64-1.96,1.19,.01,1.5,.91,1.52,1.91,.02,1.45,.07,2.91-.01,4.36-.06,1.17,.71,.92,1.34,.9,.6-.02,1.43,.33,1.37-.86-.06-1.4-.03-2.81,0-4.22,.02-1.11,.3-2.13,1.66-2.09,1.27,.03,1.51,1,1.51,2.06,0,1.41,.06,2.81-.02,4.22-.06,1.02,.55,.97,1.19,.89,.61-.08,1.56,.45,1.52-.87-.05-1.65-.02-3.3,0-4.94,.01-1.41-.1-2.8-1.57-3.48-1.42-.66-2.83-.48-4.1,.5-.27,.21-.42,.55-.94,.17-2.01-1.45-3.01-1.4-5.1,.23Z"/>
      <path class="cls-1" d="M140.35,39.04c0-1.31-.05-2.62,.01-3.93,.06-1.28-.85-.89-1.49-.93-.68-.04-1.38-.17-1.32,.95,.08,1.4,0,2.81,.02,4.22,.01,1.11-.36,1.98-1.59,2-1.25,.03-1.62-.87-1.64-1.96-.01-1.36-.07-2.72,.02-4.07,.07-1.03-.36-1.24-1.26-1.16-.75,.06-1.56-.21-1.48,1.1,.11,1.69,0,3.4,.03,5.09,.05,3.12,2.5,4.43,5.21,2.78,.33-.2,.44-.53,.76,.15,.43,.94,1.46,.35,2.21,.38,.75,.03,.48-.7,.49-1.13,.03-1.16,.01-2.33,.01-3.49Z"/>
      <path class="cls-1" d="M180.07,38.99c0-1.31-.04-2.62,.01-3.93,.05-1.18-.79-.87-1.4-.86-.6,0-1.45-.34-1.41,.85,.04,1.41,0,2.81,.01,4.22,.01,1.15-.3,2.11-1.63,2.1-1.36,0-1.59-1.05-1.61-2.15-.02-1.36-.07-2.72,.01-4.07,.08-1.28-.79-.92-1.45-.96-.7-.04-1.34-.12-1.28,.98,.09,1.64,0,3.3,.03,4.95,.04,3.38,2.34,4.69,5.26,3.01,.26-.15,.4-.52,.7,.09,.5,1.02,1.54,.47,2.31,.44,.77-.03,.41-.84,.43-1.31,.05-1.11,.02-2.23,.02-3.35Z"/>
      <path class="cls-1" d="M155.98,35.25c-.22-1.7-1.41-.94-2.17-1.04-.97-.13-.72,.7-.72,1.22-.02,2.47,.02,4.95-.02,7.42-.02,1.19,.81,.85,1.41,.85,.6,0,1.45,.34,1.4-.85-.05-1.36,0-2.72-.02-4.07-.02-1.18,.21-2.25,1.64-2.24,1.45,.02,1.6,1.16,1.6,2.29,0,1.31,.07,2.63-.02,3.93-.08,1.14,.63,.97,1.3,.96,.67-.02,1.5,.29,1.44-.97-.09-1.6-.03-3.2-.02-4.8,.01-1.47-.17-2.87-1.7-3.56-1.47-.67-2.84-.38-4.12,.87Z"/>
      <path class="cls-1" d="M139.07,57.79c0,.97,.04,1.94-.01,2.91-.05,.82,.22,1.09,1.07,1.09,.87,0,.92-.44,.9-1.09-.03-1.12,0-2.23,0-3.35,0-1.1,.37-1.94,1.62-1.96,1.24-.02,1.5,.91,1.55,1.88,.06,1.21,.05,2.43,0,3.64-.03,.74,.3,.86,.95,.87,.71,.01,.93-.23,.91-.92-.03-1.31-.07-2.62,.04-3.93,.08-.95,.62-1.64,1.73-1.55,1.04,.08,1.38,.78,1.39,1.7,.02,1.26,.04,2.52,0,3.78-.02,.71,.23,.92,.93,.91,.7,0,1.09-.13,1.06-.95-.06-1.4,.05-2.82-.04-4.22-.19-2.82-2.51-3.91-4.83-2.25-.49,.35-.7,.39-1.16-.03-1.01-.93-2.18-.94-3.35-.25-.36,.21-.62,.75-.96-.13-.16-.41-.99-.26-1.49-.1-.49,.16-.29,.66-.29,1.02-.02,.97,0,1.94,0,2.91Z"/>
      <path class="cls-1" d="M166.08,31.8q-1.49,0-1.56,1.37c-.02,.46,.1,.91-.63,1.06-.55,.12-.71,2.13-.23,2.19,1.23,.15,.82,.99,.85,1.62,.06,1.06-.02,2.13,.06,3.19,.17,2.27,2.29,3.37,4.33,2.32,.86-.44,.43-1.17,.5-1.78,.04-.31-.09-.55-.51-.43-1.55,.43-1.7-.49-1.63-1.67,.04-.67,.06-1.36,0-2.03-.08-.87,.19-1.29,1.11-1.13,.9,.16,1.18-.23,1.14-1.12-.04-.77-.08-1.38-1.08-1.2-.98,.17-1.31-.28-1.16-1.19,.18-1.08-.34-1.39-1.19-1.19Z"/>
      <path class="cls-1" d="M122.36,56.28c-.05-1.02-.16-2.3,1.16-2.98,1.19-.61,2.18-.27,3.08,.75,.47,.54,1.14-.03,1.57-.29,.57-.35-.03-.77-.25-1.05-1.01-1.28-2.36-1.87-3.97-1.58-1.65,.3-2.86,1.27-3.29,2.91-.43,1.61-.42,3.28-.01,4.89,.4,1.57,1.49,2.56,3.12,2.9,1.61,.33,2.97-.15,4.05-1.36,.25-.27,.63-.6,.49-.99-.16-.44-.72-.39-1.1-.57-.55-.26-.75,.26-1.06,.52-.72,.62-1.5,.82-2.41,.41-.89-.41-1.32-1.09-1.36-2.04-.02-.43,0-.87,0-1.51Z"/>
      <path class="cls-1" d="M161.82,19.9c0-1.07-.04-2.14,.01-3.2,.03-.71-.23-.9-.92-.9-.67,0-.97,.13-.93,.88,.06,1.21,.05,2.43,0,3.64-.05,1.08-.51,1.9-1.76,1.87-1.22-.03-1.5-.87-1.49-1.9,0-1.21-.02-2.43,0-3.64,.01-.63-.23-.9-.86-.83-.44,.05-1.09-.2-1.07,.59,.04,1.79-.24,3.6,.15,5.36,.45,2.07,2.52,2.84,4.27,1.63,.47-.32,.7-.75,.91,.22,.08,.39,.87,.19,1.33,.14,.48-.05,.35-.5,.35-.82,.01-1.02,0-2.04,0-3.06Z"/>
      <path class="cls-1" d="M169.94,57.84c0-1.07-.04-2.14,.01-3.2,.04-.74-.28-.89-.94-.89-.67,0-.96,.17-.93,.9,.05,1.21,.06,2.43-.02,3.64-.07,1.08-.54,1.86-1.81,1.8-1.22-.06-1.52-.89-1.55-1.89-.04-1.21-.04-2.43,0-3.64,.02-.67-.26-.83-.86-.81-.58,.02-1.04,0-1.01,.82,.06,1.55-.03,3.11,.06,4.66,.13,2.17,2.14,3.29,4.09,2.32,.49-.25,.78-.8,1.39,.09,.46,.67,1.54,.02,1.56-.89,.02-.97,0-1.94,0-2.91Z"/>
      <path class="cls-1" d="M124.4,19.77c0,1.02,.04,2.04-.01,3.05-.04,.73,.16,1.03,.96,1.01,.75-.01,.88-.32,.87-.97-.03-1.21-.06-2.43,.02-3.63,.06-1,.51-1.77,1.7-1.76,1.24,0,1.53,.83,1.55,1.84,.03,1.26,.03,2.52,0,3.78-.01,.74,.46,.72,.97,.72,.52,0,.96,0,.94-.73-.04-1.6,.08-3.21-.06-4.79-.2-2.26-2.33-3.28-4.28-2.14-.43,.25-.73,.77-1.02-.18-.11-.36-.9-.19-1.35-.1-.45,.08-.28,.55-.29,.85-.02,1.02,0,2.03,0,3.05Z"/>
      <path class="cls-1" d="M183.93,54.76c.24-1.21-.54-.94-1.13-.98-.79-.05-.67,.5-.67,.98,0,2.03,.02,4.07-.01,6.1-.01,.68,.2,.93,.91,.92,.66,0,.97-.14,.94-.88-.05-1.21-.06-2.42,0-3.63,.06-1.06,.49-1.89,1.74-1.9,1.31,0,1.61,.89,1.65,1.94,.05,1.21,.05,2.42,0,3.63-.03,.79,.39,.82,.99,.83,.61,0,.87-.15,.85-.81-.04-1.6,.03-3.2-.05-4.79-.08-1.58-1.2-2.5-2.78-2.54-.96-.02-1.62,.52-2.45,1.13Z"/>
      <path class="cls-1" d="M181.92,20.63c0,.78,.04,1.55-.01,2.33-.05,.77,.35,.87,.98,.87,.62,0,1.01-.11,.98-.87-.05-1.4,.03-2.81-.03-4.22-.04-.87,.1-1.41,1.15-1.23,.61,.11,.88-.16,.87-.8,0-.63-.24-.83-.86-.85-.42-.01-1.2,.39-1.13-.59,.06-.77,.59-.97,1.24-.85,.45,.09,.79,.12,.76-.47-.02-.41,.14-.86-.46-1.08-1.5-.55-3.17,.21-3.33,1.8-.09,.89-.78,1.13-1.08,1.74-.5,1.03,1.01,.96,.92,1.74-.02,.19,0,.39,0,.58,0,.63,0,1.26,0,1.89Z"/>
      <path class="cls-1" d="M135.67,15.77c-1.6,.01-2.62,.72-2.83,1.89-.25,1.39,.31,2.2,1.93,2.76,.41,.14,.85,.22,1.24,.4,.42,.19,1.01,.35,.8,.99-.17,.52-.68,.67-1.2,.62-.68-.07-1.34-.27-1.9-.66-.6-.42-.74,.07-.99,.4-.29,.38-.29,.68,.17,.94,1.31,.75,2.66,1.13,4.16,.58,.99-.36,1.47-1.11,1.55-2.08,.08-.97-.42-1.66-1.29-2.07-.44-.2-.91-.33-1.34-.55-.55-.28-1.63-.26-1.35-1.16,.32-1.02,1.26-.56,1.99-.33,.14,.04,.29,.07,.41,.15,.69,.48,.89-.04,1.17-.52,.39-.67-.2-.73-.53-.9-.65-.33-1.36-.52-1.98-.46Z"/>
      <path class="cls-1" d="M174.75,61.82c.24-.02,.49-.01,.73-.05,.61-.1,.87-.42,.88-1.09,.01-.86-.5-.63-.95-.59-.8,.07-1.17-.27-1.13-1.09,.03-.77,.07-1.56,0-2.33-.1-.96,.13-1.48,1.22-1.29,.54,.09,.9,0,.89-.73,0-.71-.24-1-.92-.88-.97,.16-1.32-.26-1.17-1.19,.12-.77-.21-.99-.97-.99-.77,0-1.04,.24-1,1,.03,.47,.21,.98-.59,1.25-.64,.21-.46,1.34-.16,1.41,1.17,.26,.7,1.08,.75,1.69,.07,.92-.03,1.85,.06,2.76,.15,1.55,.85,2.12,2.39,2.11Z"/>
      <path class="cls-1" d="M166.33,23.93c.35,.03,.76-.09,1.16-.29,.52-.27,.32-.75,.34-1.16,.01-.31-.18-.41-.48-.34-1.63,.4-1.6-.66-1.56-1.76,.02-.63,.04-1.26,0-1.89-.06-.72,.13-1.08,.94-.99,.55,.06,1.16,.19,1.16-.79,0-.87-.43-.98-1.08-.89-.85,.12-1.14-.26-1.01-1.05,.22-1.35-.75-1.05-1.46-1.02-.4,.02-1.55,3.28-1.31,3.6,.03,.04,.07,.09,.11,.09,1.03,.05,.69,.84,.72,1.39,.05,1.06,0,2.13,.1,3.19,.12,1.35,.97,1.92,2.38,1.91Z"/>
      <path class="cls-1" d="M142.64,23.95c.18-.03,.52-.07,.85-.14,.67-.13,.77-.59,.75-1.19-.03-.85-.6-.42-.93-.4-.96,.07-1.16-.46-1.13-1.26,.03-.77,.06-1.56,0-2.32-.08-.87,.16-1.28,1.1-1.13,.58,.09,1.02,.02,1-.8-.01-.71-.25-1-.93-.88-.99,.17-1.3-.28-1.15-1.2,.11-.69-.19-.84-.87-.92-2-.24-.23,2.48-1.95,2.44-.04,0-.21,1.09,.08,1.17,1.32,.36,.73,1.37,.81,2.11,.09,.86,.04,1.74,.11,2.61,.1,1.29,.9,1.85,2.29,1.91Z"/>
      <path class="cls-1" d="M152.04,23.95c.19-.04,.52-.1,.86-.16,.73-.12,.69-.66,.69-1.21-.01-.87-.6-.38-.91-.37-.81,.03-1.16-.31-1.14-1.11,.02-.82,.06-1.65-.01-2.47-.08-.86,.14-1.28,1.09-1.13,.58,.09,1.02,.03,1-.79-.02-.68-.2-1.02-.91-.89-.96,.16-1.32-.24-1.17-1.18,.11-.65-.09-.96-.84-.93-.69,.02-1.12,.09-1.01,.94,.07,.55,.13,1.02-.71,1.29-.55,.17-.62,1.29,.04,1.48,.89,.26,.67,.79,.68,1.31,.03,1.06,.01,2.13,.04,3.19,.04,1.39,.87,1.95,2.31,2.02Z"/>
      <path class="cls-1" d="M122.35,18.64c0-1.5-.04-3,.01-4.49,.03-.77-.35-.87-.97-.86-.59,.01-1.02,.04-1.01,.83,.03,2.95,.03,5.9,0,8.84,0,.77,.37,.87,.99,.86,.59,0,1.03-.04,1-.84-.05-1.45-.01-2.9-.01-4.35Z"/>
      <path class="cls-1" d="M197.68,17.03c.14-.95-.16-1.28-1.06-1.24-1.02,.04-.73,.7-.73,1.21-.02,1.94,.01,3.87-.02,5.81-.01,.7,.11,1.03,.93,1.04,.89,0,.91-.45,.89-1.09-.02-.72-.05-1.46,.03-2.18,.14-1.37,.52-2.54,2.17-2.82,1.06-.17,.64-1.13,.53-1.66-.13-.66-.81-.35-1.2-.16-.5,.24-.92,.64-1.53,1.09Z"/>
      <path class="cls-1" d="M178.09,57.66c0,1.02,.02,2.03,0,3.05-.02,.64,0,1.07,.89,1.08,.93,.01,1-.41,.99-1.14-.03-1.94-.03-3.87,0-5.81,0-.67-.05-1.06-.91-1.08-.94-.02-1.01,.42-.97,1.15,.04,.92,.01,1.84,.01,2.76Z"/>
      <path class="cls-1" d="M147.46,19.93c0-1.07-.03-2.13,.01-3.2,.03-.67-.16-.94-.89-.93-.68,0-.94,.19-.92,.9,.04,2.04,.04,4.07,0,6.11-.02,.75,.19,1.01,.97,1.01,.79,0,.86-.37,.84-.98-.03-.97,0-1.94,0-2.91Z"/>
      <path class="cls-1" d="M178.92,52.71c.65,.05,1.17,.06,1.16-.84,0-.74-.2-1.06-.98-1.02-.62,.03-1.15-.04-1.09,.87,.04,.67,.08,1.18,.92,.99Z"/>
      <path class="cls-1" d="M147.49,13.79c.23-.73-.15-.92-.9-.9-.66,.02-1.07,.07-1.07,.9,0,.76,.25,1,.99,.97,.64-.02,1.18-.02,.98-.97Z"/>
      <path class="cls-1" d="M16.41,30.62c.15-2.93-.28-6.77,.32-10.58C18.43,9.2,28.21,.55,39.01,.03c12.33-.59,22.42,7.66,24.98,18.51,.41,1.75,.63,3.53,.63,5.33-.02,5.1,.02,10.19-.01,15.29-.07,10.79-7.36,20.19-17.87,22.94-1.43,.37-1.66,.84-1.22,2.22,2.16,6.64,8.16,9.59,15.13,7.3,1.01-.33,1.95-.86,2.94-1.25,.51-.2,1.02-.95,1.51-.51,.68,.59,1.23,1.39,1.63,2.21,.22,.45-.46,.77-.81,1.04-3.78,2.95-8.11,4.29-12.88,4.21-8.83-.15-15.45-5.2-17.91-13.71-.29-.99-.76-1.46-1.75-1.76-10.01-3.08-16.73-12-16.96-22.46-.06-2.62,0-5.24,0-8.76Zm9.61-.4c0,4.06-.12,6.88,.02,9.69,.41,7.74,6.96,13.61,14.92,13.47,7.54-.13,13.88-6.36,14.04-13.94,.11-5.29,.1-10.58,0-15.86-.13-7.09-5.79-13.21-12.69-13.91-7.63-.77-14.35,3.93-15.97,11.21-.78,3.5-.17,7.06-.32,9.34Z"/>
      <path class="cls-1" d="M80.07,37.12c.15,2.47-.18,4.95,.2,7.41,.69,4.5,3.96,8.07,8.32,9.06,4.39,1,9.1-.85,11.48-4.74,.7-1.14,1.27-1.12,2.28-.71,1.79,.73,3.61,1.4,5.44,2.01,.93,.31,1.03,.66,.6,1.53-3.45,7-11.35,11.41-19.18,10.64-8.12-.79-15.03-6.63-17-14.38-.41-1.6-.64-3.22-.62-4.88,.03-4.12,0-8.25,.02-12.37,.05-8.87,6.47-16.64,15.33-18.59,8.62-1.9,17.85,2.63,21.61,10.57,.42,.89,.18,1.1-.64,1.37-1.97,.67-3.92,1.4-5.84,2.19-.88,.36-1.28,.18-1.77-.66-2.24-3.79-6.48-5.85-10.57-5.24-4.66,.69-8.16,3.71-9.26,8.09-.72,2.86-.24,5.8-.4,8.7Z"/>
      <path class="cls-1" d="M.04,37.19C.04,29.48,.06,21.76,.01,14.04c0-1.11,.23-1.52,1.42-1.46,2.09,.11,4.18,.09,6.27,0,1.11-.05,1.47,.23,1.47,1.42-.06,8.35-.03,16.69-.03,25.04,0,7.08-.02,14.17,.02,21.25,0,1.01-.25,1.33-1.28,1.29-2.09-.08-4.18-.1-6.27,0-1.23,.06-1.63-.2-1.61-1.54,.08-7.62,.04-15.24,.04-22.85Z"/>
      <path class="cls-1" d="M185.12,35.31c2.09-1.63,3.09-1.68,5.1-.23,.52,.38,.67,.04,.94-.17,1.27-.98,2.68-1.16,4.1-.5,1.46,.68,1.58,2.07,1.57,3.48-.02,1.65-.04,3.3,0,4.94,.04,1.32-.92,.79-1.52,.87-.64,.08-1.25,.12-1.19-.89,.08-1.4,.02-2.81,.02-4.22,0-1.06-.24-2.03-1.51-2.06-1.35-.03-1.64,.99-1.66,2.09-.02,1.41-.06,2.81,0,4.22,.05,1.19-.77,.85-1.37,.86-.63,.02-1.4,.26-1.34-.9,.08-1.45,.03-2.91,.01-4.36-.02-1.01-.34-1.9-1.52-1.91-1.25-.02-1.63,.87-1.64,1.96-.02,1.41-.09,2.82,.02,4.21,.1,1.25-.69,.99-1.38,1.02-.76,.03-1.4,.1-1.36-1.06,.09-2.42,.02-4.85,.03-7.27,0-.53-.22-1.34,.75-1.17,.72,.13,2.03-.79,1.95,1.1Z"/>
      <path class="cls-1" d="M130,37.38c.24,2.82-.43,5.05-3.23,6.1-.62,.24-.51,.62-.27,1.01,.75,1.22,1.85,1.25,3.05,.83,.28-.1,.59-.28,.78,.03,.26,.45-.21,.56-.46,.72-1.88,1.18-4.45,.47-5.44-1.57-.3-.61-.6-1.07-1.28-1.22-.05-.01-.08-.05-.13-.07-1.86-.99-2.66-2.58-2.68-4.63-.03-2.58-.27-5.23,2.48-6.79,3.1-1.77,6.9,.26,7.18,3.83,.05,.63,0,1.26,0,1.75Zm-2.67,.1s0,0,0,0c0-.48,.02-.97,0-1.45-.08-1.26-.92-2.19-2.06-2.17-1.23,.02-2.03,.69-2.14,1.91-.1,1.14-.1,2.31,.02,3.46,.12,1.16,.94,1.83,2.08,1.81,1.2-.02,1.96-.74,2.1-1.97,.06-.52,0-1.06,0-1.59Z"/>
      <path class="cls-1" d="M140.35,39.04c0,1.16,.02,2.33-.01,3.49-.01,.43,.25,1.16-.49,1.13-.75-.03-1.78,.56-2.21-.38-.31-.68-.42-.35-.76-.15-2.71,1.64-5.16,.34-5.21-2.78-.03-1.7,.07-3.4-.03-5.09-.08-1.3,.73-1.03,1.48-1.1,.9-.08,1.33,.14,1.26,1.16-.09,1.35-.03,2.72-.02,4.07,.01,1.09,.38,1.99,1.64,1.96,1.23-.03,1.6-.89,1.59-2-.02-1.41,.06-2.82-.02-4.22-.06-1.12,.64-1,1.32-.95,.65,.04,1.55-.35,1.49,.93-.06,1.31-.01,2.62-.01,3.93Z"/>
      <path class="cls-1" d="M180.07,38.99c0,1.12,.04,2.23-.02,3.35-.02,.47,.33,1.28-.43,1.31-.76,.03-1.81,.59-2.31-.44-.3-.61-.44-.24-.7-.09-2.92,1.68-5.22,.37-5.26-3.01-.02-1.65,.06-3.3-.03-4.95-.06-1.1,.59-1.02,1.28-.98,.66,.04,1.52-.32,1.45,.96-.08,1.35-.03,2.72-.01,4.07,.01,1.1,.25,2.14,1.61,2.15,1.33,0,1.65-.95,1.63-2.1-.02-1.41,.03-2.81-.01-4.22-.04-1.19,.82-.84,1.41-.85,.61,0,1.45-.32,1.4,.86-.05,1.31-.01,2.62-.01,3.93Z"/>
      <path class="cls-1" d="M155.98,35.25c1.29-1.25,2.65-1.54,4.12-.87,1.53,.69,1.71,2.1,1.7,3.56-.01,1.6-.07,3.21,.02,4.8,.07,1.26-.77,.95-1.44,.97-.67,.02-1.38,.19-1.3-.96,.1-1.3,.02-2.62,.02-3.93,0-1.14-.15-2.28-1.6-2.29-1.43-.02-1.66,1.05-1.64,2.24,.02,1.36-.04,2.72,.02,4.07,.05,1.19-.8,.86-1.4,.85-.6,0-1.43,.34-1.41-.85,.04-2.47,0-4.95,.02-7.42,0-.52-.26-1.34,.72-1.22,.76,.1,1.95-.66,2.17,1.04Z"/>
      <path class="cls-1" d="M139.07,57.79c0-.97-.02-1.94,0-2.91,0-.36-.2-.86,.29-1.02,.5-.16,1.33-.31,1.49,.1,.34,.88,.6,.34,.96,.13,1.17-.69,2.34-.69,3.35,.25,.46,.43,.67,.39,1.16,.03,2.32-1.66,4.64-.58,4.83,2.25,.09,1.4-.01,2.81,.04,4.22,.03,.82-.36,.95-1.06,.95-.69,0-.95-.21-.93-.91,.04-1.26,.02-2.52,0-3.78-.01-.92-.35-1.62-1.39-1.7-1.11-.09-1.65,.6-1.73,1.55-.11,1.3-.08,2.62-.04,3.93,.02,.69-.2,.93-.91,.92-.65-.01-.98-.13-.95-.87,.05-1.21,.05-2.43,0-3.64-.05-.97-.3-1.9-1.55-1.88-1.26,.02-1.62,.86-1.62,1.96,0,1.12-.02,2.23,0,3.35,.02,.65-.03,1.09-.9,1.09-.84,0-1.11-.28-1.07-1.09,.06-.97,.01-1.94,.01-2.91Z"/>
      <path class="cls-1" d="M197.01,59.97c-1.55,1.28-3.08,1.51-4.67,.5-1.32-.84-1.85-2.41-1.45-4.09,.56-2.36,3.08-3.47,5.25-2.3,.34,.18,.71,.96,1.05-.12,.13-.42,.88-.2,1.35-.17,.55,.04,.46,.52,.46,.9,0,1.84,.07,3.68-.03,5.51-.14,2.7-1.47,3.88-4.19,3.92-.99,.01-1.92-.17-2.82-.55-.45-.19-.95-.29-.56-1,.29-.53,.47-.89,1.16-.49,.68,.39,1.46,.54,2.24,.49,1.56-.09,2.15-.76,2.2-2.6Zm-2.13-.51c1.28-.01,2.23-.97,2.19-2.2-.04-1.17-.96-2.01-2.21-2.02-1.31,0-2.23,.92-2.18,2.18,.05,1.17,1,2.05,2.21,2.03Z"/>
      <path class="cls-1" d="M166.08,31.8c.85-.19,1.37,.11,1.19,1.19-.15,.91,.17,1.37,1.16,1.19,1-.18,1.04,.42,1.08,1.2,.04,.89-.24,1.28-1.14,1.12-.93-.16-1.2,.26-1.11,1.13,.06,.67,.05,1.36,0,2.03-.08,1.18,.08,2.1,1.63,1.67,.42-.11,.55,.12,.51,.43-.08,.61,.36,1.34-.5,1.78-2.04,1.05-4.16-.05-4.33-2.32-.08-1.06,0-2.13-.06-3.19-.03-.63,.38-1.47-.85-1.62-.48-.06-.32-2.07,.23-2.19,.73-.16,.61-.6,.63-1.06q.07-1.38,1.56-1.37Z"/>
      <path class="cls-1" d="M122.36,56.28c0,.64-.02,1.08,0,1.51,.04,.95,.47,1.64,1.36,2.04,.91,.42,1.69,.21,2.41-.41,.31-.27,.51-.79,1.06-.52,.38,.18,.95,.13,1.1,.57,.13,.38-.25,.71-.49,.99-1.09,1.21-2.44,1.7-4.05,1.36-1.62-.33-2.71-1.33-3.12-2.9-.41-1.61-.41-3.28,.01-4.89,.43-1.64,1.64-2.62,3.29-2.91,1.61-.29,2.96,.31,3.97,1.58,.22,.28,.81,.7,.25,1.05-.43,.26-1.09,.83-1.57,.29-.9-1.02-1.88-1.36-3.08-.75-1.32,.68-1.21,1.97-1.16,2.98Z"/>
      <path class="cls-1" d="M133.18,61.86c-2.4-.03-4.12-1.75-4.11-4.11,.01-2.38,1.85-4.14,4.3-4.11,2.34,.03,4.17,1.85,4.15,4.13-.01,2.34-1.9,4.12-4.34,4.09Zm2.38-3.92c.06-1.48-.78-2.51-2.12-2.59-1.41-.09-2.4,.8-2.49,2.23-.09,1.43,.94,2.61,2.31,2.64,1.31,.03,2.25-.9,2.31-2.28Z"/>
      <path class="cls-1" d="M190.36,15.74c2.4-.01,4.14,1.69,4.15,4.07,.01,2.36-1.74,4.13-4.1,4.14-2.37,.01-4.15-1.73-4.16-4.08,0-2.36,1.75-4.12,4.11-4.13Zm2.31,4.08c-.02-1.4-1.03-2.44-2.35-2.42-1.26,.02-2.21,1.03-2.23,2.38-.02,1.47,1.01,2.52,2.44,2.47,1.29-.05,2.17-1.05,2.15-2.43Z"/>
      <path class="cls-1" d="M161.82,19.9c0,1.02,0,2.04,0,3.06,0,.32,.12,.77-.35,.82-.46,.05-1.25,.24-1.33-.14-.21-.98-.44-.55-.91-.22-1.76,1.21-3.82,.44-4.27-1.63-.38-1.77-.1-3.58-.15-5.36-.02-.79,.63-.54,1.07-.59,.62-.07,.87,.2,.86,.83-.03,1.21,0,2.43,0,3.64,0,1.03,.27,1.87,1.49,1.9,1.24,.03,1.71-.79,1.76-1.87,.06-1.21,.06-2.43,0-3.64-.03-.74,.27-.87,.93-.88,.69,0,.95,.19,.92,.9-.05,1.06-.01,2.13-.01,3.2Z"/>
      <path class="cls-1" d="M169.94,57.84c0,.97,.01,1.94,0,2.91-.02,.91-1.1,1.56-1.56,.89-.61-.89-.9-.34-1.39-.09-1.95,.97-3.96-.15-4.09-2.32-.09-1.55,0-3.11-.06-4.66-.03-.82,.42-.8,1.01-.82,.6-.02,.89,.14,.86,.81-.04,1.21-.04,2.43,0,3.64,.03,1,.33,1.83,1.55,1.89,1.27,.06,1.74-.73,1.81-1.8,.08-1.21,.07-2.43,.02-3.64-.03-.73,.26-.9,.93-.9,.66,0,.98,.15,.94,.89-.05,1.06-.01,2.13-.01,3.2Z"/>
      <path class="cls-1" d="M173.43,20.49c-.53,0-1.07-.03-1.6,.01-.35,.03-.87-.25-1.03,.22-.18,.52,.22,.92,.61,1.21,.93,.7,1.92,.66,2.82,0,.59-.44,.94-.26,1.33,.19,.57,.65-.13,.86-.44,1.1-1.37,1.08-3.63,.99-5-.15-1.39-1.16-1.81-3.43-.97-5.19,.8-1.66,2.54-2.48,4.38-2.06,1.59,.37,3.04,2.58,2.78,4.15-.08,.48-.34,.52-.7,.52-.73,0-1.46,0-2.18,0Zm-.8-1.08c.38-.67,1.54,.54,1.61-.67,.05-.87-.75-1.46-1.67-1.46-.98-.01-1.85,.57-1.77,1.51,.09,1.05,1.17,.16,1.84,.62Z"/>
      <path class="cls-1" d="M124.4,19.77c0-1.02-.01-2.03,0-3.05,0-.31-.16-.77,.29-.85,.45-.08,1.24-.26,1.35,.1,.3,.95,.59,.44,1.02,.18,1.95-1.15,4.08-.12,4.28,2.14,.14,1.59,.02,3.2,.06,4.79,.02,.74-.43,.74-.94,.73-.51,0-.98,.02-.97-.72,.02-1.26,.02-2.52,0-3.78-.02-1.01-.31-1.83-1.55-1.84-1.19,0-1.63,.76-1.7,1.76-.08,1.21-.05,2.42-.02,3.63,.02,.64-.12,.95-.87,.97-.8,.01-1-.28-.96-1.01,.05-1.01,.01-2.03,.01-3.05Z"/>
      <path class="cls-1" d="M183.93,54.76c.83-.61,1.49-1.15,2.45-1.13,1.57,.03,2.7,.96,2.78,2.54,.08,1.59,0,3.19,.05,4.79,.02,.66-.25,.82-.85,.81-.61,0-1.02-.04-.99-.83,.05-1.21,.05-2.42,0-3.63-.04-1.04-.35-1.94-1.65-1.94-1.25,0-1.68,.84-1.74,1.9-.06,1.21-.06,2.42,0,3.63,.03,.74-.28,.87-.94,.88-.71,0-.92-.23-.91-.92,.03-2.03,0-4.06,.01-6.1,0-.47-.11-1.02,.67-.98,.6,.03,1.38-.23,1.13,.98Z"/>
      <path class="cls-1" d="M181.92,20.63c0-.63,0-1.26,0-1.89,0-.19-.02-.39,0-.58,.08-.79-1.43-.71-.92-1.74,.3-.61,.99-.86,1.08-1.74,.16-1.59,1.83-2.35,3.33-1.8,.6,.22,.44,.67,.46,1.08,.02,.59-.31,.55-.76,.47-.65-.12-1.18,.08-1.24,.85-.07,.99,.71,.58,1.13,.59,.62,.02,.86,.23,.86,.85,0,.65-.26,.91-.87,.8-1.04-.18-1.18,.36-1.15,1.23,.06,1.4-.02,2.81,.03,4.22,.03,.76-.36,.87-.98,.87-.62,0-1.03-.1-.98-.87,.05-.77,.01-1.55,.01-2.33Z"/>
      <path class="cls-1" d="M135.67,15.77c.63-.06,1.33,.13,1.98,.46,.33,.17,.92,.23,.53,.9-.28,.49-.48,1-1.17,.52-.11-.08-.27-.11-.41-.15-.73-.22-1.67-.68-1.99,.33-.28,.9,.79,.88,1.35,1.16,.43,.22,.9,.34,1.34,.55,.87,.41,1.38,1.1,1.29,2.07-.08,.98-.56,1.72-1.55,2.08-1.5,.55-2.85,.16-4.16-.58-.46-.26-.46-.56-.17-.94,.25-.33,.4-.82,.99-.4,.56,.4,1.22,.6,1.9,.66,.52,.05,1.02-.11,1.2-.62,.22-.64-.38-.8-.8-.99-.39-.18-.83-.26-1.24-.4-1.62-.57-2.19-1.38-1.93-2.76,.21-1.17,1.23-1.88,2.83-1.89Z"/>
      <path class="cls-1" d="M174.75,61.82c-1.54,.01-2.24-.56-2.39-2.11-.09-.91,.01-1.84-.06-2.76-.05-.61,.43-1.44-.75-1.69-.3-.07-.48-1.2,.16-1.41,.8-.26,.62-.78,.59-1.25-.04-.76,.23-1,1-1,.76,0,1.1,.22,.97,.99-.15,.93,.19,1.35,1.17,1.19,.69-.12,.92,.18,.92,.88,0,.73-.34,.83-.89,.73-1.09-.19-1.32,.33-1.22,1.29,.08,.77,.04,1.55,0,2.33-.04,.82,.33,1.16,1.13,1.09,.45-.04,.96-.27,.95,.59,0,.67-.27,.99-.88,1.09-.24,.04-.48,.03-.73,.05Z"/>
      <path class="cls-1" d="M166.33,23.93c-1.41,.01-2.26-.56-2.38-1.91-.09-1.06-.04-2.13-.1-3.19-.03-.55,.32-1.34-.72-1.39-.04,0-.08-.05-.11-.09-.24-.32,.9-3.58,1.31-3.6,.71-.03,1.69-.33,1.46,1.02-.13,.79,.15,1.17,1.01,1.05,.65-.09,1.08,.02,1.08,.89,0,.97-.61,.85-1.16,.79-.81-.09-1,.28-.94,.99,.05,.63,.03,1.26,0,1.89-.04,1.1-.08,2.16,1.56,1.76,.3-.07,.49,.03,.48,.34-.02,.41,.19,.89-.34,1.16-.4,.2-.81,.32-1.16,.29Z"/>
      <path class="cls-1" d="M142.64,23.95c-1.39-.06-2.19-.62-2.29-1.91-.07-.87-.01-1.74-.11-2.61-.08-.75,.51-1.75-.81-2.11-.29-.08-.12-1.17-.08-1.17,1.72,.04-.05-2.68,1.95-2.44,.69,.08,.98,.24,.87,.92-.15,.91,.16,1.36,1.15,1.2,.68-.12,.92,.18,.93,.88,.02,.81-.42,.89-1,.8-.94-.15-1.18,.26-1.1,1.13,.07,.77,.04,1.55,0,2.32-.03,.8,.17,1.32,1.13,1.26,.33-.02,.9-.45,.93,.4,.02,.6-.08,1.06-.75,1.19-.33,.06-.66,.11-.85,.14Z"/>
      <path class="cls-1" d="M152.04,23.95c-1.44-.07-2.27-.63-2.31-2.02-.03-1.06-.01-2.13-.04-3.19-.02-.52,.21-1.05-.68-1.31-.65-.19-.59-1.31-.04-1.48,.84-.26,.78-.74,.71-1.29-.11-.84,.32-.92,1.01-.94,.75-.02,.95,.29,.84,.93-.15,.94,.2,1.34,1.17,1.18,.71-.12,.89,.21,.91,.89,.02,.82-.42,.88-1,.79-.95-.16-1.16,.27-1.09,1.13,.07,.82,.03,1.65,.01,2.47-.02,.8,.33,1.14,1.14,1.11,.31-.01,.9-.5,.91,.37,0,.55,.04,1.08-.69,1.21-.33,.06-.66,.12-.86,.16Z"/>
      <path class="cls-1" d="M122.35,18.64c0,1.45-.04,2.9,.01,4.35,.03,.8-.4,.83-1,.84-.62,0-1-.09-.99-.86,.03-2.95,.03-5.9,0-8.84,0-.8,.42-.82,1.01-.83,.62-.01,1,.1,.97,.86-.05,1.5-.01,3-.01,4.49Z"/>
      <path class="cls-1" d="M197.68,17.03c.61-.45,1.04-.85,1.53-1.09,.39-.19,1.07-.5,1.2,.16,.11,.53,.53,1.48-.53,1.66-1.65,.27-2.04,1.45-2.17,2.82-.07,.72-.05,1.45-.03,2.18,.02,.64,0,1.1-.89,1.09-.82,0-.95-.34-.93-1.04,.04-1.94,0-3.87,.02-5.81,0-.5-.29-1.16,.73-1.21,.9-.04,1.2,.29,1.06,1.24Z"/>
      <path class="cls-1" d="M178.09,57.66c0-.92,.03-1.84-.01-2.76-.03-.72,.03-1.17,.97-1.15,.86,.02,.92,.41,.91,1.08-.03,1.94-.03,3.87,0,5.81,.01,.73-.06,1.15-.99,1.14-.88-.01-.9-.43-.89-1.08,.03-1.02,0-2.03,0-3.05Z"/>
      <path class="cls-1" d="M147.46,19.93c0,.97-.02,1.94,0,2.91,.02,.61-.05,.98-.84,.98-.78,0-.99-.26-.97-1.01,.04-2.04,.04-4.07,0-6.11-.01-.71,.24-.89,.92-.9,.73,0,.91,.25,.89,.93-.04,1.06-.01,2.13-.01,3.2Z"/>
      <path class="cls-1" d="M178.92,52.71c-.84,.19-.88-.32-.92-.99-.05-.91,.48-.84,1.09-.87,.78-.04,.98,.28,.98,1.02,0,.9-.51,.9-1.16,.84Z"/>
      <path class="cls-1" d="M147.49,13.79c.2,.95-.33,.95-.98,.97-.74,.03-.99-.21-.99-.97,0-.83,.41-.88,1.07-.9,.75-.02,1.13,.17,.9,.9Z"/>
    </g>
  </g>
</svg>